HIERARCHY
ROOT Hips
{
	OFFSET 0.00000 0.00000 0.00000
	CHANNELS 6 Xposition Yposition Zposition Zrotation Yrotation Xrotation 
	JOINT LHipJoint
	{
		OFFSET 0 0 0
		CHANNELS 3 Zrotation Yrotation Xrotation
		JOINT LeftHip
		{
			OFFSET 1.37959 -1.78713 0.86582
			CHANNELS 3 Zrotation Yrotation Xrotation
			JOINT LeftKnee
			{
				OFFSET 2.54611 -6.99539 0.00000
				CHANNELS 3 Zrotation Yrotation Xrotation
				JOINT LeftAnkle
				{
					OFFSET 2.59951 -7.14211 0.00000
					CHANNELS 3 Zrotation Yrotation Xrotation
					JOINT LeftToe
					{
						OFFSET 0.18493 -0.50810 1.96120
						CHANNELS 3 Zrotation Yrotation Xrotation
						End Site
						{
							OFFSET 0.00000 -0.00000 1.02054
						}
					}
				}
			}
		}
	}
	JOINT RHipJoint
	{
		OFFSET 0 0 0
		CHANNELS 3 Zrotation Yrotation Xrotation
		JOINT RightHip
		{
			OFFSET -1.33564 -1.78713 0.86582
			CHANNELS 3 Zrotation Yrotation Xrotation
			JOINT RightKnee
			{
				OFFSET -2.52705 -6.94302 0.00000
				CHANNELS 3 Zrotation Yrotation Xrotation
				JOINT RightAnkle
				{
					OFFSET -2.55964 -7.03257 0.00000
					CHANNELS 3 Zrotation Yrotation Xrotation
					JOINT RightToe
					{
						OFFSET -0.25804 -0.70896 2.12109
						CHANNELS 3 Zrotation Yrotation Xrotation
						End Site
						{
							OFFSET -0.00000 -0.00000 1.11821
						}
					}
				}
			}
		}
	}
	JOINT lowerback
	{
		OFFSET 0 0 0
		CHANNELS 3 Zrotation Yrotation Xrotation
		JOINT Chest
		{
			OFFSET -0.02031 2.24248 -0.18900
			CHANNELS 3 Zrotation Yrotation Xrotation
			JOINT Chest2
			{
				OFFSET 0.08342 2.24689 -0.03799
				CHANNELS 3 Zrotation Yrotation Xrotation
				JOINT lowerneck
				{
					OFFSET 0 0 0
					CHANNELS 3 Zrotation Yrotation Xrotation
					JOINT Neck
					{
						OFFSET -0.11607 1.55844 0.24628
						CHANNELS 3 Zrotation Yrotation Xrotation
						JOINT Head
						{
							OFFSET 0.06877 1.60174 -0.17013
							CHANNELS 3 Zrotation Yrotation Xrotation
							End Site
							{
								OFFSET 0.03358 1.61266 -0.08543
							}
						}
					}
				}
				JOINT LeftCollar
				{
					OFFSET 0 0 0
					CHANNELS 3 Zrotation Yrotation Xrotation
					JOINT LeftShoulder
					{
						OFFSET 3.47537 0.55866 -0.72348
CHANNELS 3 Zrotation Xrotation Yrotation
						JOINT LeftElbow
						{
OFFSET 0 -5.381540 0.000000
CHANNELS 3 Zrotation Xrotation Yrotation
							JOINT LeftWrist
							{
OFFSET 0 -3.333120 0.000000
CHANNELS 3 Zrotation Xrotation Yrotation
								JOINT lhand
								{
									OFFSET 0 0 0
CHANNELS 3 Zrotation Xrotation Yrotation
									JOINT LFingers
									{
OFFSET 0 -0.710790 0.000000
CHANNELS 3 Zrotation Xrotation Yrotation
										End Site
										{
OFFSET 0 -0.573060 0.000000
										}
									}
								}
								JOINT LThumb
								{
OFFSET 0 0.000000 0.000000
CHANNELS 3 Zrotation Xrotation Yrotation
									End Site
									{
OFFSET 0 -0.581810 0.581810
									}
								}
							}
						}
					}
				}
				JOINT RightCollar
				{
					OFFSET 0 0 0
					CHANNELS 3 Zrotation Yrotation Xrotation
					JOINT RightShoulder
					{
						OFFSET -3.27844 0.90739 -0.35708
CHANNELS 3 Zrotation Xrotation Yrotation
						JOINT RightElbow
						{
OFFSET 0 -5.169540 0.000000
CHANNELS 3 Zrotation Xrotation Yrotation
							JOINT RightWrist
							{
OFFSET 0 -3.382870 0.000000
CHANNELS 3 Zrotation Xrotation Yrotation
								JOINT rhand
								{
									OFFSET 0 0 0
CHANNELS 3 Zrotation Xrotation Yrotation
									JOINT RFingers
									{
OFFSET 0 -0.817970 0.000000
CHANNELS 3 Zrotation Xrotation Yrotation
										End Site
										{
OFFSET 0 -0.659470 0.000000
										}
									}
								}
								JOINT RThumb
								{
OFFSET 0 0.000000 0.000000
CHANNELS 3 Zrotation Xrotation Yrotation
									End Site
									{
OFFSET 0 -0.669530 0.669530
									}
								}
							}
						}
					}
				}
			}
		}
	}
}
MOTION
Frames: 12
Frame Time: 0.008333333333333333
3.832400 18.042700 21.544800 -178.139000 5.303300 -176.233000 0.000000 0.000000 0.000000 -18.956500 -5.919200 -23.887800 2.011200 8.889300 25.449800 -0.039900 -6.772200 -3.681800 0.030600 -1.129700 -3.105700 0.000000 0.000000 0.000000 23.086500 1.807000 -0.492500 -6.239500 -14.656400 45.935300 -0.966900 -5.181100 17.571400 -0.479100 -4.438800 12.314500 0.335200 1.075200 1.098700 2.500600 1.508000 0.851500 2.360700 0.781000 0.197400 -10.183000 -3.631500 -17.077100 4.135500 -2.812900 20.753200 2.780100 -1.495800 9.616500 -0.000000 0.000000 0.000000 -2.866200 4.293600 -12.617500 13.006700 -21.297100 2.455700 -2.016800 12.357800 -37.599600 0.000000 0.000000 0.000000 -7.125000 0.000000 0.000000 -43.559500 62.110900 20.138700 -0.000000 0.000000 0.000000 -2.545700 3.399700 18.119400 -16.341000 -25.980900 -3.794100 -10.827400 -15.562600 -17.396400 0.000000 0.000000 0.000000 7.125000 0.000000 -0.000000 11.282300 12.538900 8.738800
3.825967 18.050329 21.474947 -178.314663 5.284208 -176.275885 0.000000 0.000000 0.000000 -19.274714 -5.637356 -23.543856 1.976480 8.816355 25.222964 -0.043982 -6.953759 -3.728685 0.024291 -0.993376 -2.730705 0.000000 0.000000 0.000000 22.794347 1.985962 -1.181750 -6.527570 -14.913338 47.050470 -1.098853 -6.018385 18.686199 -0.534355 -4.674955 12.985317 0.233885 1.041552 1.113091 2.422583 1.457899 0.862922 2.337773 0.753743 0.202554 -10.174217 -3.619830 -17.239279 4.156942 -2.783705 20.907008 2.791811 -1.479058 9.698682 0.000000 0.000000 0.000000 -2.767936 4.263374 -12.765123 13.030823 -21.332356 2.464483 -2.182154 12.364109 -37.380681 0.000000 0.000000 0.000000 -7.125000 0.000000 0.000000 -43.439959 61.907898 19.864320 0.000000 0.000000 0.000000 -2.518526 3.455327 18.394852 -16.247107 -25.854349 -3.753194 -11.594584 -15.519014 -17.465882 0.000000 0.000000 0.000000 7.125000 0.000000 0.000000 10.778610 12.402988 8.364094
3.819535 18.057957 21.405094 -178.490326 5.265116 -176.318770 0.000000 0.000000 0.000000 -19.592927 -5.355512 -23.199911 1.941760 8.743409 24.996128 -0.048065 -7.135319 -3.775569 0.017982 -0.857052 -2.355711 0.000000 0.000000 0.000000 22.502194 2.164923 -1.870999 -6.815641 -15.170275 48.165640 -1.230807 -6.855669 19.800998 -0.589611 -4.911110 13.656135 0.132569 1.007904 1.127482 2.344565 1.407798 0.874344 2.314846 0.726487 0.207709 -10.165434 -3.608161 -17.401458 4.178385 -2.754511 21.060816 2.803522 -1.462317 9.780864 0.000000 0.000000 0.000000 -2.669672 4.233149 -12.912745 13.054945 -21.367613 2.473266 -2.347508 12.370418 -37.161763 0.000000 0.000000 0.000000 -7.125000 0.000000 0.000000 -43.320417 61.704896 19.589939 0.000000 0.000000 0.000000 -2.491352 3.510953 18.670305 -16.153214 -25.727797 -3.712289 -12.361769 -15.475428 -17.535363 0.000000 0.000000 0.000000 7.125000 0.000000 0.000000 10.274919 12.267076 7.989388
3.814453 18.065420 21.339272 -178.730232 5.275183 -176.350038 0.000000 0.000000 0.000000 -19.963105 -5.114087 -22.870404 1.905214 8.665320 24.754168 -0.051080 -7.272927 -3.816409 0.011839 -0.650012 -1.786491 0.000000 0.000000 0.000000 22.136339 2.378970 -2.606547 -7.119974 -15.426170 49.316369 -1.355577 -7.728110 20.806558 -0.633653 -5.091082 14.168927 -0.103302 0.967974 1.134359 2.299025 1.348641 0.902740 2.401442 0.694062 0.231449 -10.223123 -3.595756 -17.574020 4.214075 -2.710571 21.169037 2.832562 -1.443039 9.849297 0.000000 0.000000 0.000000 -2.641223 4.172840 -13.075019 13.109862 -21.447792 2.493381 -2.518480 12.280836 -37.062631 0.000000 0.000000 0.000000 -7.125000 0.000000 0.000000 -43.356791 61.588707 19.490250 0.000000 0.000000 0.000000 -2.545514 3.489108 18.909582 -16.090661 -25.643348 -3.685109 -12.983066 -15.420392 -17.250485 0.000000 0.000000 0.000000 7.125000 0.000000 0.000000 9.862759 12.499155 7.614895
3.810371 18.072760 21.276429 -179.017643 5.306810 -176.372718 0.000000 0.000000 0.000000 -20.371706 -4.902550 -22.551572 1.867319 8.583426 24.501024 -0.053307 -7.378036 -3.852778 0.005819 -0.390682 -1.073655 0.000000 0.000000 0.000000 21.715986 2.618960 -3.376329 -7.436332 -15.681293 50.493392 -1.475036 -8.626547 21.731345 -0.669404 -5.229509 14.564869 -0.438670 0.923398 1.135678 2.277501 1.282788 0.943687 2.569023 0.657816 0.268932 -10.329964 -3.582808 -17.754260 4.260299 -2.655728 21.243549 2.874416 -1.421885 9.907562 0.000000 0.000000 0.000000 -2.664397 4.090287 -13.248125 13.187550 -21.561189 2.521875 -2.693607 12.120347 -37.052075 0.000000 0.000000 0.000000 -7.125000 0.000000 0.000000 -43.508455 61.536709 19.519733 0.000000 0.000000 0.000000 -2.659818 3.409977 19.122109 -16.051281 -25.590031 -3.668079 -13.496487 -15.356890 -16.703580 0.000000 0.000000 0.000000 7.125000 0.000000 0.000000 9.518278 13.003341 7.240560
3.806369 18.079846 21.213932 -179.323770 5.337573 -176.402377 0.000000 0.000000 0.000000 -20.798412 -4.709117 -22.225253 1.830931 8.504565 24.257405 -0.054539 -7.472403 -3.905393 0.000675 -0.153145 -0.420748 0.000000 0.000000 0.000000 21.273111 2.850858 -4.142381 -7.751658 -15.931945 51.660520 -1.591060 -9.501209 22.624400 -0.688410 -5.301126 14.770135 -0.793538 0.885846 1.144361 2.248149 1.225818 0.980069 2.739296 0.625863 0.297075 -10.412554 -3.570003 -17.898667 4.286097 -2.606926 21.295022 2.903965 -1.403770 9.950762 0.000000 0.000000 0.000000 -2.674816 4.019760 -13.449880 13.267998 -21.678515 2.551455 -2.849863 11.955869 -37.057616 0.000000 0.000000 0.000000 -7.125000 0.000000 0.000000 -43.662373 61.501259 19.567667 0.000000 0.000000 0.000000 -2.767871 3.343312 19.302726 -16.011845 -25.536627 -3.651043 -13.871972 -15.232304 -16.072112 0.000000 0.000000 0.000000 7.125000 0.000000 0.000000 9.266996 13.604825 6.917321
3.802823 18.085495 21.153399 -179.736124 5.363428 -176.471653 0.000000 0.000000 0.000000 -21.327875 -4.618440 -21.856444 1.803097 8.442919 24.067845 -0.050127 -7.505804 -4.050212 0.000510 -0.039294 -0.107977 0.000000 0.000000 0.000000 20.702413 3.036830 -4.887257 -8.061130 -16.157214 52.771484 -1.687592 -10.240930 23.337360 -0.612372 -4.993551 13.893181 -1.259085 0.888155 1.194833 2.174379 1.219261 0.990543 2.924856 0.618276 0.272210 -10.357505 -3.558003 -17.839700 4.195957 -2.592411 21.215726 2.863678 -1.402904 9.908455 0.000000 0.000000 0.000000 -2.612839 4.017492 -13.814236 13.364118 -21.818138 2.587207 -2.899016 11.768743 -37.154519 0.000000 0.000000 0.000000 -7.125000 0.000000 0.000000 -43.829088 61.559731 19.720321 0.000000 0.000000 0.000000 -2.840446 3.347394 19.302231 -15.972094 -25.482732 -3.633971 -13.464566 -14.761024 -14.960695 0.000000 0.000000 0.000000 7.125000 0.000000 0.000000 9.544675 14.758550 6.884086
3.799276 18.091145 21.092865 -180.148477 5.389282 -176.540928 0.000000 0.000000 0.000000 -21.857337 -4.527764 -21.487635 1.775263 8.381272 23.878286 -0.045715 -7.539205 -4.195031 0.000345 0.074556 0.204793 0.000000 0.000000 0.000000 20.131715 3.222801 -5.632133 -8.370601 -16.382483 53.882448 -1.784124 -10.980652 24.050320 -0.536334 -4.685976 13.016228 -1.724633 0.890464 1.245305 2.100609 1.212705 1.001017 3.110415 0.610689 0.247345 -10.302455 -3.546004 -17.780734 4.105816 -2.577896 21.136430 2.823391 -1.402038 9.866147 0.000000 0.000000 0.000000 -2.550862 4.015224 -14.178591 13.460238 -21.957761 2.622958 -2.948168 11.581617 -37.251422 0.000000 0.000000 0.000000 -7.125000 0.000000 0.000000 -43.995803 61.618203 19.872974 0.000000 0.000000 0.000000 -2.913020 3.351476 19.301736 -15.932344 -25.428837 -3.616900 -13.057160 -14.289745 -13.849277 0.000000 0.000000 0.000000 7.125000 0.000000 0.000000 9.822354 15.912275 6.850850
3.795551 18.096824 21.028985 -180.348960 5.240141 -176.644868 0.000000 0.000000 0.000000 -22.166232 -4.443512 -21.050243 1.747638 8.319057 23.687622 -0.047369 -7.690494 -4.287166 0.000270 0.045297 0.124451 0.000000 0.000000 0.000000 19.832296 3.205657 -6.330959 -8.664564 -16.582411 54.915715 -1.856780 -11.240510 24.548569 -0.409942 -4.002352 11.096503 -1.922637 0.840358 1.302441 2.063356 1.141721 1.026820 3.183912 0.573278 0.243697 -10.215401 -3.531554 -17.696665 3.983013 -2.561349 21.074228 2.767206 -1.400784 9.824378 0.000000 0.000000 0.000000 -2.459331 4.014212 -14.478669 13.543627 -22.078438 2.654256 -3.010290 11.467076 -37.201749 0.000000 0.000000 0.000000 -7.125000 0.000000 0.000000 -43.992303 61.566226 19.816774 0.000000 0.000000 0.000000 -2.917640 3.363926 19.260660 -15.892234 -25.374285 -3.599709 -12.435702 -13.911044 -13.530540 0.000000 0.000000 0.000000 7.125000 0.000000 0.000000 10.246909 16.276906 7.079689
3.791757 18.102514 20.963833 -180.468955 5.024521 -176.761977 0.000000 0.000000 0.000000 -22.391336 -4.361701 -20.586799 1.720093 8.256627 23.496537 -0.051327 -7.886569 -4.359286 0.000229 -0.038328 -0.105230 0.000000 0.000000 0.000000 19.635934 3.111352 -7.012291 -8.952634 -16.772712 55.919467 -1.920365 -11.318074 24.965253 -0.264423 -3.175871 8.780641 -2.019004 0.770341 1.362109 2.039976 1.046261 1.058448 3.214839 0.524538 0.248110 -10.116189 -3.516173 -17.603061 3.847802 -2.544030 21.018519 2.704982 -1.399382 9.782813 0.000000 0.000000 0.000000 -2.356573 4.013675 -14.754327 13.622181 -22.191918 2.683863 -3.077339 11.380111 -37.096392 0.000000 0.000000 0.000000 -7.125000 0.000000 0.000000 -43.924141 61.472292 19.681233 0.000000 0.000000 0.000000 -2.896445 3.379554 19.204168 -15.851988 -25.319483 -3.582472 -11.732927 -13.567512 -13.512932 0.000000 0.000000 0.000000 7.125000 0.000000 0.000000 10.727260 16.341769 7.408088
3.787358 18.107501 20.899669 -180.548182 4.907584 -176.833870 0.000000 0.000000 0.000000 -22.566827 -4.237738 -20.195415 1.694129 8.197458 23.315607 -0.053865 -8.047879 -4.436200 0.000373 -0.117309 -0.322187 0.000000 0.000000 0.000000 19.471888 3.106860 -7.724101 -9.240729 -16.957948 56.915807 -1.966098 -11.184102 25.253690 -0.142758 -2.317245 6.387097 -2.069711 0.712208 1.396426 2.030444 0.967713 1.076943 3.234313 0.484705 0.252608 -10.078635 -3.489463 -17.555957 3.761291 -2.498470 21.014066 2.674730 -1.384317 9.767561 0.000000 0.000000 0.000000 -2.287553 4.006234 -14.942100 13.697572 -22.300704 2.712358 -3.130539 11.308106 -36.991765 0.000000 0.000000 0.000000 -7.125000 0.000000 0.000000 -43.844440 61.382311 19.543704 0.000000 0.000000 0.000000 -2.893052 3.391229 19.270313 -15.824331 -25.281841 -3.570622 -11.586980 -13.532000 -14.131811 0.000000 0.000000 0.000000 7.125000 0.000000 0.000000 10.832212 15.724993 7.603768
3.781544 18.110841 20.837816 -180.532100 5.021353 -176.800057 0.000000 0.000000 0.000000 -22.626329 -4.015232 -19.972496 1.671862 8.145913 23.158418 -0.053082 -8.127917 -4.524320 0.000950 -0.185430 -0.509395 0.000000 0.000000 0.000000 19.383397 3.312336 -8.507161 -9.528882 -17.131343 57.894818 -1.970098 -10.555592 25.242309 -0.076864 -1.383470 3.811947 -2.013672 0.681858 1.371478 2.053288 0.928705 1.064738 3.227015 0.465695 0.257309 -10.185228 -3.436270 -17.617562 3.788630 -2.386887 21.129443 2.719223 -1.337308 9.813827 0.000000 0.000000 0.000000 -2.297408 3.982647 -14.924410 13.765569 -22.398514 2.738254 -3.151363 11.271077 -36.888841 0.000000 0.000000 0.000000 -7.125000 0.000000 0.000000 -43.737764 61.301572 19.401524 0.000000 0.000000 0.000000 -2.931277 3.393662 19.623164 -15.826104 -25.284315 -3.571365 -12.742809 -14.216590 -16.238692 0.000000 0.000000 0.000000 7.125000 0.000000 0.000000 10.059543 13.514652 7.489175
